<svg version="1.1" id="Layer_1" xmlns="http://www.w3.org/2000/svg" xmlns:xlink="http://www.w3.org/1999/xlink" x="0px" y="0px"
	 width="100%" viewBox="0 0 939 265" enable-background="new 0 0 939 265" xml:space="preserve">
<path fill="#FFFFFF" opacity="1.000000" stroke="none" 
	d="
M940.000000,73.000000 
	C940.000000,137.319687 940.000000,201.639359 940.000000,265.979523 
	C627.080017,265.979523 314.160095,265.979523 1.120067,265.979523 
	C1.120067,177.765594 1.120067,89.530975 1.120067,1.000000 
	C203.024811,1.000000 405.049744,1.000000 607.347717,1.385819 
	C602.831482,2.222192 597.934998,2.185423 593.272583,3.212048 
	C577.457153,6.694468 560.956543,8.670441 546.141846,14.713283 
	C524.448242,23.562016 503.985077,35.427387 482.753479,46.003559 
	C482.157501,46.005875 481.875671,46.149357 481.597595,46.466621 
	C481.531372,46.502872 481.402374,46.581409 481.095520,46.700836 
	C479.183380,47.536694 477.578033,48.253124 475.585754,48.999317 
	C454.500519,56.308910 432.965057,58.313587 411.252655,58.953583 
	C390.528290,59.564449 369.795227,59.881458 348.609558,60.280704 
	C323.718750,62.588821 299.149689,64.031235 274.896118,67.611252 
	C257.976410,70.108742 241.489014,75.535004 224.798218,79.692749 
	C224.787933,79.732468 224.725113,79.679672 224.346069,79.739853 
	C212.645508,84.109703 201.323959,88.419357 190.002426,92.729019 
	C190.132721,93.187317 190.263000,93.645615 190.393295,94.103912 
	C191.544586,94.103912 192.757996,94.343407 193.836746,94.063675 
	C199.389252,92.623901 204.852402,90.802628 210.446899,89.568428 
	C231.657730,84.889122 252.772339,79.563957 274.180359,76.047653 
	C295.290100,72.580338 316.711487,71.010567 338.378906,68.687454 
	C339.511932,68.591560 340.262177,68.416473 341.332825,68.358727 
	C342.744019,68.306816 343.834808,68.137566 345.398529,67.982147 
	C355.160034,67.649162 364.449707,67.328453 373.737000,66.950401 
	C397.936646,65.965332 422.172852,65.468040 446.315521,63.698738 
	C455.775238,63.005486 465.024292,59.437965 474.681152,57.073044 
	C476.346924,56.278313 477.700775,55.590015 479.448334,54.941940 
	C481.105774,54.659790 482.464325,54.535515 483.618256,53.983536 
	C492.433502,49.766781 501.527374,46.011810 509.940735,41.096710 
	C543.637146,21.411272 580.045044,11.363482 618.865479,10.103453 
	C649.466614,9.110205 679.492126,12.859778 708.696472,22.581665 
	C733.569214,30.861633 755.901917,44.199039 778.589478,56.862888 
	C801.262390,69.518509 825.101929,77.975212 851.494873,77.395157 
	C874.792664,76.883133 898.089661,76.333809 921.388733,75.888206 
	C927.038269,75.780167 932.954956,74.742409 937.305115,79.558121 
	C938.325623,77.074615 939.162842,75.037308 940.000000,73.000000 
M717.982910,143.830063 
	C717.792847,144.216934 717.602722,144.603790 716.983276,145.579132 
	C715.490051,148.507568 713.764160,151.342300 712.541077,154.379501 
	C704.238831,174.994995 707.719482,197.678558 725.766541,213.093475 
	C735.451599,221.422256 746.848694,225.511444 759.454102,225.814087 
	C779.841309,226.303604 798.118896,219.296021 815.316528,209.006454 
	C817.422913,207.746201 819.167908,205.881836 821.080322,204.297409 
	C820.889832,203.903412 820.699402,203.509415 820.508911,203.115402 
	C813.391479,205.322983 806.324341,207.712143 799.146240,209.700607 
	C783.799988,213.951752 768.228271,215.532455 752.371094,213.069901 
	C741.926941,211.447983 733.034119,206.668640 724.889832,199.264511 
	C715.767700,188.393967 712.669250,175.772064 716.004822,162.224579 
	C717.889221,154.571045 721.958679,147.455505 725.541443,139.810806 
	C725.987122,139.197968 726.432861,138.585114 726.975891,137.973648 
	C726.975891,137.973648 726.966064,137.876816 727.532471,137.546661 
	C735.728821,126.375031 746.899780,119.271088 760.255920,114.061699 
	C769.942017,112.102028 779.552917,109.145767 789.331238,108.407333 
	C805.549805,107.182541 821.321106,109.557541 835.429016,118.827431 
	C843.803345,124.329987 848.579712,132.484802 853.001343,140.997406 
	C853.001343,140.997406 853.009521,140.976624 853.005676,141.800751 
	C858.992737,160.391174 855.503296,178.580566 849.160828,198.090652 
	C864.565002,193.124573 878.294739,189.002213 891.798462,184.239227 
	C900.968933,181.004639 910.078369,177.327377 917.772461,169.931732 
	C924.336914,164.715378 928.749512,158.071793 931.465271,149.421051 
	C935.345398,137.883820 935.363953,125.966858 935.067261,113.146599 
	C935.067261,110.951485 935.067261,108.756378 935.067261,106.561264 
	C934.596375,106.547386 934.125549,106.533508 933.654663,106.519638 
	C933.424744,109.006485 933.194824,111.493324 932.574524,114.398773 
	C932.498840,114.953468 932.423218,115.508163 932.076233,116.817299 
	C930.483643,123.213463 928.891052,129.609619 926.985962,136.676682 
	C923.561035,146.048355 919.851868,155.655441 912.176819,162.106750 
	C898.030029,173.997986 881.213928,180.750000 862.947815,183.547150 
	C862.896118,183.387268 862.844482,183.227386 862.976501,182.549011 
	C862.977051,182.365982 862.977539,182.182938 863.387451,181.357117 
	C863.762878,179.567642 864.351135,177.793182 864.478516,175.986237 
	C865.210571,165.594498 867.487000,154.982239 866.181396,144.838409 
	C862.366028,115.196678 837.769592,99.116821 810.401611,98.111046 
	C787.369751,97.264618 766.337463,103.869720 746.357849,116.382690 
	C739.565857,122.239197 732.773865,128.095703 725.431946,134.184570 
	C724.961426,134.810532 724.490906,135.436478 723.449463,136.347305 
	C722.622314,137.558914 721.795166,138.770508 721.002502,139.998459 
	C721.002502,139.998459 720.980103,139.967178 720.430176,140.267014 
	C719.781616,141.309616 719.133057,142.352219 718.450745,143.513138 
	C718.450745,143.513138 718.339844,143.566284 717.982910,143.830063 
M651.389221,90.420013 
	C647.362793,101.598480 643.336304,112.776939 639.053650,124.448830 
	C639.036926,124.633385 639.020203,124.817940 638.588013,125.388901 
	C638.475281,125.926361 638.362549,126.463821 637.933044,127.673965 
	C628.725525,152.692520 619.517944,177.711075 610.055908,203.421158 
	C618.700439,203.421158 626.332642,203.544830 633.952332,203.292221 
	C635.140747,203.252792 636.882019,201.725204 637.336548,200.502472 
	C642.341431,187.040237 647.142029,173.502045 652.552246,159.520813 
	C664.358154,127.302620 676.164062,95.084435 688.175171,62.306293 
	C679.595886,62.306293 671.793762,62.211899 663.999573,62.416153 
	C662.928345,62.444221 661.334778,63.745502 660.934570,64.813789 
	C657.809448,73.156410 654.917236,81.586250 651.389221,90.420013 
M719.615601,62.337379 
	C710.712463,62.331726 710.716125,62.332993 707.685364,71.067360 
	C706.604004,74.183556 705.545105,77.308601 704.399719,80.401390 
	C691.360657,115.610779 678.282898,150.805847 665.281982,186.029327 
	C663.249023,191.537125 661.548279,197.167526 659.443604,203.493668 
	C667.993164,203.493668 675.611267,203.649170 683.210083,203.336792 
	C684.441040,203.286179 686.156799,201.373184 686.688599,199.959885 
	C702.077393,159.065277 717.365112,118.132568 732.600769,77.180588 
	C734.351562,72.474693 735.702454,67.620018 737.397644,62.339539 
	C731.207581,62.339539 725.896362,62.339539 719.615601,62.337379 
z"/>
<path fill="#FFFEFE" opacity="1.000000" stroke="none" 
	d="
M650.000000,1.000000 
	C746.548401,1.000000 843.096863,1.000000 940.000000,1.000000 
	C940.000000,23.352976 940.000000,45.707829 939.583679,68.511055 
	C927.590637,68.387825 916.016602,67.430580 904.436523,67.352051 
	C892.630737,67.271973 880.821350,68.145264 869.009521,68.439484 
	C853.350525,68.829536 837.623291,68.716545 822.590942,63.837563 
	C810.518127,59.919136 798.835754,54.798176 786.662964,50.047615 
	C784.282227,48.839752 782.210510,47.810879 780.156372,46.748028 
	C755.784180,34.137405 731.617249,21.038193 705.422485,12.449412 
	C687.758057,6.657559 669.717712,2.493868 650.737671,2.022887 
	C650.321716,1.617435 650.160828,1.308718 650.000000,1.000000 
z"/>
<path fill="#D02427" opacity="1.000000" stroke="none" 
	d="
M786.980103,50.210827 
	C798.835754,54.798176 810.518127,59.919136 822.590942,63.837563 
	C837.623291,68.716545 853.350525,68.829536 869.009521,68.439484 
	C880.821350,68.145264 892.630737,67.271973 904.436523,67.352051 
	C916.016602,67.430580 927.590637,68.387825 939.583679,68.979713 
	C940.000000,70.066673 940.000000,71.133339 940.000000,72.600006 
	C939.162842,75.037308 938.325623,77.074615 937.305115,79.558121 
	C932.954956,74.742409 927.038269,75.780167 921.388733,75.888206 
	C898.089661,76.333809 874.792664,76.883133 851.494873,77.395157 
	C825.101929,77.975212 801.262390,69.518509 778.589478,56.862888 
	C755.901917,44.199039 733.569214,30.861633 708.696472,22.581665 
	C679.492126,12.859778 649.466614,9.110205 618.865479,10.103453 
	C580.045044,11.363482 543.637146,21.411272 509.940735,41.096710 
	C501.527374,46.011810 492.433502,49.766781 483.618256,53.983536 
	C482.464325,54.535515 481.105774,54.659790 479.510498,54.599464 
	C480.599182,53.499966 482.010864,52.765587 483.441010,52.069199 
	C493.299500,47.268658 503.993439,43.966274 512.503296,36.060074 
	C517.666565,34.132114 522.519775,32.368317 527.207886,30.240484 
	C533.383240,27.437586 539.178894,23.538485 545.585449,21.561438 
	C556.847656,18.085957 568.314636,14.780603 579.940979,13.095406 
	C596.939026,10.631614 614.127197,8.938416 631.285156,8.313965 
	C642.269775,7.914187 653.378662,9.762319 664.372131,11.094824 
	C675.743652,12.473138 687.296448,12.662117 698.217957,17.123499 
	C709.092834,21.565857 720.427612,24.888226 731.275696,29.388895 
	C741.462402,33.615253 751.387451,38.523224 761.209229,43.557423 
	C766.355286,46.195042 770.864807,50.055786 775.954956,52.825317 
	C788.244934,59.512241 800.286804,67.038170 814.152954,69.977089 
	C826.236450,72.538170 838.493347,74.819611 850.782715,75.697899 
	C860.271423,76.376030 869.922974,74.286812 879.513000,74.139969 
	C898.428223,73.850334 917.350891,74.054596 936.742004,74.054596 
	C937.382080,71.837051 936.715942,70.066231 933.550903,69.967598 
	C922.600525,69.626366 911.642212,68.988548 900.697632,69.157753 
	C888.774170,69.342094 876.815491,71.257126 864.958069,70.673363 
	C850.821960,69.977417 836.357056,70.869629 822.670410,65.906425 
	C810.735657,61.578548 798.847656,57.121189 786.965820,52.649811 
	C786.534546,52.487495 786.387634,51.569767 786.289062,50.914288 
	C786.702515,50.671898 786.872559,50.467346 786.980103,50.210827 
z"/>
<path fill="#D01E22" opacity="1.000000" stroke="none" 
	d="
M482.997559,46.007179 
	C503.985077,35.427387 524.448242,23.562016 546.141846,14.713283 
	C560.956543,8.670441 577.457153,6.694468 593.272583,3.212048 
	C597.934998,2.185423 602.831482,2.222192 607.810364,1.385819 
	C611.361267,1.000000 614.722595,1.000000 618.710205,1.252468 
	C619.905701,1.688756 620.474854,1.872576 620.727539,2.325900 
	C615.469055,2.937139 610.489746,3.007278 605.593140,3.679624 
	C596.604309,4.913858 587.584839,6.134242 578.724426,8.040177 
	C568.319275,10.278393 558.005798,13.020886 547.786926,16.005028 
	C544.084106,17.086349 540.803467,19.566687 537.270935,21.287041 
	C527.853088,25.873632 518.403076,30.394140 508.615509,35.005722 
	C503.099030,37.738899 497.632965,39.968094 492.866943,43.222481 
	C489.406891,45.585110 486.375702,48.178101 481.824371,47.532127 
	C481.622253,46.991020 481.512299,46.786217 481.402374,46.581409 
	C481.402374,46.581409 481.531372,46.502872 481.850861,46.565338 
	C482.446075,46.420925 482.721802,46.214046 482.997559,46.007179 
z"/>
<path fill="#D01E22" opacity="1.000000" stroke="none" 
	d="
M649.545898,1.000000 
	C650.160828,1.308718 650.321716,1.617435 650.750122,2.217626 
	C651.017639,2.509099 651.031921,2.899110 650.576782,2.931339 
	C646.744202,2.640279 643.366760,2.316989 639.989929,1.745251 
	C639.990479,1.496803 640.000000,1.000000 640.000000,1.000000 
	C643.030579,1.000000 646.061218,1.000000 649.545898,1.000000 
z"/>
<path fill="#C02C32" opacity="1.000000" stroke="none" 
	d="
M639.531494,1.000000 
	C640.000000,1.000000 639.990479,1.496803 639.523376,1.772190 
	C633.052185,2.050514 627.048035,2.053450 621.043945,2.056391 
	C620.474854,1.872576 619.905701,1.688756 619.168335,1.252468 
	C625.687622,1.000000 632.375305,1.000000 639.531494,1.000000 
z"/>
<path fill="#F40505" opacity="1.000000" stroke="none" 
	d="
M481.916504,47.868427 
	C486.375702,48.178101 489.406891,45.585110 492.866943,43.222481 
	C497.632965,39.968094 503.099030,37.738899 508.829651,35.284363 
	C510.302643,35.686230 511.211212,35.874245 512.119751,36.062263 
	C503.993439,43.966274 493.299500,47.268658 483.441010,52.069199 
	C482.010864,52.765587 480.599182,53.499966 479.116821,54.559242 
	C477.700775,55.590015 476.346924,56.278313 474.238281,57.014969 
	C471.853119,57.277519 470.176788,57.317104 468.599365,57.732437 
	C448.942657,62.907993 428.831909,64.412628 408.636688,64.926003 
	C395.336426,65.264084 382.015839,64.802483 368.715698,65.143166 
	C360.469116,65.354408 352.243805,66.397064 343.633850,67.045296 
	C342.508942,67.051682 341.759155,67.079285 340.632996,67.074417 
	C339.502777,67.070503 338.748901,67.099060 337.562531,67.097656 
	C295.521210,69.153740 254.655487,76.250778 214.112411,85.626396 
	C216.373566,84.377640 218.812653,83.794090 221.031754,82.745171 
	C222.432831,82.082901 223.505264,80.725349 224.725113,79.679672 
	C224.725113,79.679672 224.787933,79.732468 225.102921,79.910065 
	C226.197952,80.237801 227.052536,80.675354 227.746964,80.495277 
	C239.666931,77.404366 251.444962,73.613869 263.503723,71.250298 
	C277.436432,68.519455 291.563507,66.534370 305.696228,65.134918 
	C321.676086,63.552544 337.756989,62.995308 353.790253,61.936012 
	C354.873413,61.864449 355.925323,61.319946 357.461243,60.988792 
	C388.804504,60.626236 419.792084,62.304287 450.401581,56.829208 
	C459.070374,55.278637 467.484344,52.303352 476.235779,49.896561 
	C476.728790,49.641003 476.952759,49.421040 477.478516,49.079498 
	C479.191345,48.627640 480.553925,48.248035 481.916504,47.868427 
z"/>
<path fill="#F60505" opacity="1.000000" stroke="none" 
	d="
M862.792786,183.067505 
	C862.844482,183.227386 862.896118,183.387268 862.975708,184.152618 
	C863.015259,185.475922 863.026978,186.193756 863.077026,187.269379 
	C864.442505,188.460663 865.769653,189.294144 866.849243,190.397629 
	C863.138855,191.722885 859.699829,192.866882 856.205017,193.802338 
	C853.843384,194.434464 852.665833,193.416550 853.165955,190.905426 
	C853.874023,187.350037 854.266541,183.677765 855.442078,180.279678 
	C858.866333,170.381790 857.830444,160.423035 856.177185,150.481491 
	C855.636169,147.227585 854.093872,144.140182 853.009521,140.976624 
	C853.009521,140.976624 853.001343,140.997406 853.034546,140.605728 
	C850.524780,127.917030 842.360962,119.973816 831.970520,114.258652 
	C815.452820,105.173309 797.457336,106.153824 779.524719,107.765717 
	C774.624329,108.206200 769.784729,109.322624 764.917297,110.128860 
	C764.800720,109.607559 764.684204,109.086266 764.567627,108.564972 
	C772.157410,106.089905 779.594666,102.460625 787.375610,101.432602 
	C797.053101,100.154015 807.026855,100.686821 816.850586,101.043571 
	C832.611572,101.615936 844.396362,109.692406 854.387024,121.387703 
	C861.388489,129.583618 863.789551,139.308731 864.852966,149.413879 
	C866.013916,160.446152 863.888428,171.302765 861.185547,182.234024 
	C861.793945,182.679672 862.293335,182.873581 862.792786,183.067505 
z"/>
<path fill="#D02326" opacity="1.000000" stroke="none" 
	d="
M720.100342,62.338459 
	C725.896362,62.339539 731.207581,62.339539 737.397644,62.339539 
	C735.702454,67.620018 734.351562,72.474693 732.600769,77.180588 
	C717.365112,118.132568 702.077393,159.065277 686.688599,199.959885 
	C686.156799,201.373184 684.441040,203.286179 683.210083,203.336792 
	C675.611267,203.649170 667.993164,203.493668 659.443604,203.493668 
	C661.548279,197.167526 663.249023,191.537125 665.281982,186.029327 
	C678.282898,150.805847 691.360657,115.610779 704.399719,80.401390 
	C705.545105,77.308601 706.604004,74.183556 707.685364,71.067360 
	C710.716125,62.332993 710.712463,62.331726 720.100342,62.338459 
M698.245911,163.563599 
	C699.721924,158.002991 701.197876,152.442368 702.704224,146.767441 
	C702.785706,146.737946 704.109314,146.663177 704.364624,146.102249 
	C706.322144,141.801178 708.226746,137.462540 709.857666,133.028870 
	C715.036804,118.949211 720.081116,104.819992 725.195129,90.716301 
	C727.839600,83.423347 730.492676,76.133247 733.198364,68.862900 
	C734.514771,65.325768 732.489807,64.115166 729.624756,64.130493 
	C725.331848,64.153458 720.956970,64.233162 716.782288,65.092186 
	C714.360107,65.590576 711.216980,67.146294 710.238281,69.132751 
	C708.302551,73.061485 707.937134,77.727318 706.403076,81.897293 
	C701.701416,94.677055 696.663513,107.332832 691.925842,120.099709 
	C686.491089,134.744949 681.267334,149.468307 675.894104,164.136581 
	C672.960815,172.144058 669.802368,180.070435 666.961853,188.109833 
	C665.844360,191.272659 665.014038,194.616714 664.715088,197.937851 
	C664.631165,198.870819 666.816101,200.780258 668.102783,200.918823 
	C671.890320,201.326645 675.773438,200.804581 679.573242,201.151031 
	C683.210999,201.482727 684.611633,199.500153 685.686340,196.645172 
	C689.749207,185.852234 693.848389,175.072968 698.245911,163.563599 
z"/>
<path fill="#CA272A" opacity="1.000000" stroke="none" 
	d="
M861.076599,181.982285 
	C863.888428,171.302765 866.013916,160.446152 864.852966,149.413879 
	C863.789551,139.308731 861.388489,129.583618 854.387024,121.387703 
	C844.396362,109.692406 832.611572,101.615936 816.850586,101.043571 
	C807.026855,100.686821 797.053101,100.154015 787.375610,101.432602 
	C779.594666,102.460625 772.157410,106.089905 764.567627,108.564972 
	C764.684204,109.086266 764.800720,109.607559 764.917297,110.128860 
	C769.784729,109.322624 774.624329,108.206200 779.524719,107.765717 
	C797.457336,106.153824 815.452820,105.173309 831.970520,114.258652 
	C842.360962,119.973816 850.524780,127.917030 853.044739,140.607803 
	C848.579712,132.484802 843.803345,124.329987 835.429016,118.827431 
	C821.321106,109.557541 805.549805,107.182541 789.331238,108.407333 
	C779.552917,109.145767 769.942017,112.102028 759.469788,114.068817 
	C754.708008,115.462128 750.732361,116.848328 746.703613,118.253036 
	C746.811462,117.480743 746.902161,116.831192 746.992859,116.181641 
	C766.337463,103.869720 787.369751,97.264618 810.401611,98.111046 
	C837.769592,99.116821 862.366028,115.196678 866.181396,144.838409 
	C867.487000,154.982239 865.210571,165.594498 864.478516,175.986237 
	C864.351135,177.793182 863.762878,179.567642 862.865417,181.675629 
	C861.921143,181.990173 861.498840,181.986221 861.076599,181.982285 
z"/>
<path fill="#CA292A" opacity="1.000000" stroke="none" 
	d="
M725.068420,199.930267 
	C733.034119,206.668640 741.926941,211.447983 752.371094,213.069901 
	C768.228271,215.532455 783.799988,213.951752 799.146240,209.700607 
	C806.324341,207.712143 813.391479,205.322983 820.508911,203.115402 
	C820.699402,203.509415 820.889832,203.903412 821.080322,204.297409 
	C819.167908,205.881836 817.422913,207.746201 815.316528,209.006454 
	C798.118896,219.296021 779.841309,226.303604 759.454102,225.814087 
	C746.848694,225.511444 735.451599,221.422256 725.721436,212.698395 
	C725.676392,212.303329 726.000000,212.000000 726.351257,212.046997 
	C732.522766,215.145081 738.080200,218.959488 744.222778,221.074692 
	C754.337402,224.557709 764.803406,225.731430 775.404907,222.212906 
	C784.313965,219.256042 793.412415,216.872772 802.346741,213.986801 
	C804.430969,213.313568 806.189880,211.633133 808.098450,210.416107 
	C807.872437,210.003830 807.646484,209.591568 807.420471,209.179291 
	C806.545105,209.366760 805.649048,209.488739 804.799622,209.758087 
	C803.714966,210.102066 802.693909,210.657822 801.600952,210.962784 
	C783.986572,215.877472 766.173767,217.977158 748.110107,213.875946 
	C738.985657,211.804321 730.231995,208.743027 724.794556,200.211014 
	C724.885742,200.117355 725.068420,199.930267 725.068420,199.930267 
M811.842285,207.158020 
	C811.742065,207.529236 811.641846,207.900452 811.541565,208.271652 
	C812.082031,208.090485 812.622437,207.909317 813.162903,207.728165 
	C812.896484,207.495926 812.630127,207.263702 811.842285,207.158020 
z"/>
<path fill="#CE2022" opacity="1.000000" stroke="none" 
	d="
M651.997986,159.984436 
	C647.142029,173.502045 642.341431,187.040237 637.336548,200.502472 
	C636.882019,201.725204 635.140747,203.252792 633.952332,203.292221 
	C626.332642,203.544830 618.700439,203.421158 610.055908,203.421158 
	C619.517944,177.711075 628.725525,152.692520 638.364014,127.295380 
	C638.864441,126.278702 638.934021,125.640602 639.003540,125.002502 
	C639.020203,124.817940 639.036926,124.633385 639.390686,124.085526 
	C640.137329,123.480705 640.546997,123.239189 640.968994,123.416725 
	C640.927856,125.163834 641.183655,126.597870 640.770752,127.802750 
	C638.099792,135.596436 635.376404,143.375443 632.463745,151.081223 
	C631.430420,153.814896 629.614807,156.247528 628.517761,158.963577 
	C626.544250,163.849472 624.874451,168.857147 623.022034,173.793030 
	C620.079163,181.634521 616.984314,189.422455 614.273193,197.342392 
	C613.977722,198.205765 615.659302,200.738602 616.635620,200.865326 
	C620.071472,201.311249 623.682251,200.567123 627.074829,201.153214 
	C633.330200,202.233871 635.859070,198.518753 637.587219,193.744995 
	C641.238953,183.657852 644.604797,173.466919 648.287354,163.391464 
	C649.025269,161.372589 650.650696,159.678101 651.899475,158.191696 
	C651.954041,159.027725 651.976013,159.506088 651.997986,159.984436 
z"/>
<path fill="#D22124" opacity="1.000000" stroke="none" 
	d="
M224.346069,79.739853 
	C223.505264,80.725349 222.432831,82.082901 221.031754,82.745171 
	C218.812653,83.794090 216.373566,84.377640 214.112411,85.626396 
	C254.655487,76.250778 295.521210,69.153740 337.564026,67.342819 
	C338.001068,67.948067 338.000458,68.278175 337.996155,68.608276 
	C316.711487,71.010567 295.290100,72.580338 274.180359,76.047653 
	C252.772339,79.563957 231.657730,84.889122 210.446899,89.568428 
	C204.852402,90.802628 199.389252,92.623901 193.836746,94.063675 
	C192.757996,94.343407 191.544586,94.103912 190.393295,94.103912 
	C190.263000,93.645615 190.132721,93.187317 190.002426,92.729019 
	C201.323959,88.419357 212.645508,84.109703 224.346069,79.739853 
z"/>
<path fill="#CA2D30" opacity="1.000000" stroke="none" 
	d="
M652.275146,159.752625 
	C651.976013,159.506088 651.954041,159.027725 651.937744,157.809509 
	C653.745667,150.903778 655.179138,144.600128 657.421204,138.598587 
	C663.490295,122.353165 669.926025,106.244995 676.168457,90.063896 
	C678.842590,83.132103 681.301819,76.116234 684.045959,69.213036 
	C685.528320,65.483986 683.728149,64.163132 680.529541,64.028702 
	C676.042725,63.840145 671.532104,63.816856 667.050049,64.060585 
	C664.168701,64.217285 661.986450,65.227356 660.902954,68.698593 
	C658.649902,75.917221 655.664795,82.907402 652.723633,89.990845 
	C652.295532,89.989861 652.124268,89.989510 651.953003,89.989151 
	C654.917236,81.586250 657.809448,73.156410 660.934570,64.813789 
	C661.334778,63.745502 662.928345,62.444221 663.999573,62.416153 
	C671.793762,62.211899 679.595886,62.306293 688.175171,62.306293 
	C676.164062,95.084435 664.358154,127.302620 652.275146,159.752625 
z"/>
<path fill="#CA292A" opacity="1.000000" stroke="none" 
	d="
M725.043945,140.097626 
	C721.958679,147.455505 717.889221,154.571045 716.004822,162.224579 
	C712.669250,175.772064 715.767700,188.393967 724.979126,199.597382 
	C725.068420,199.930267 724.885742,200.117355 724.458801,200.099640 
	C722.839050,199.266983 721.089294,198.723541 720.539307,197.595261 
	C714.731018,185.679550 709.819519,173.580444 714.786621,159.967484 
	C715.153198,158.962845 714.674133,157.649628 714.588196,156.479858 
	C714.133179,156.432556 713.678162,156.385254 713.223206,156.337952 
	C712.135315,161.384491 710.610596,166.386917 710.095154,171.491257 
	C709.668274,175.719162 709.849854,180.199493 710.789185,184.334579 
	C712.740845,192.925980 716.321533,200.851959 722.603271,207.332947 
	C723.929199,208.700943 724.877625,210.434738 726.000000,212.000000 
	C726.000000,212.000000 725.676392,212.303329 725.503601,212.442520 
	C707.719482,197.678558 704.238831,174.994995 712.541077,154.379501 
	C713.764160,151.342300 715.490051,148.507568 717.467529,145.229553 
	C718.081177,144.442062 718.210510,144.004166 718.339844,143.566284 
	C718.339844,143.566284 718.450745,143.513138 718.830078,143.532013 
	C719.799561,142.356308 720.389832,141.161743 720.980103,139.967178 
	C720.980103,139.967178 721.002502,139.998459 721.321289,139.948868 
	C722.433472,138.620331 723.226929,137.341385 724.020386,136.062439 
	C724.490906,135.436478 724.961426,134.810532 725.844482,134.383987 
	C726.493347,135.681198 726.729736,136.779007 726.966064,137.876816 
	C726.966064,137.876816 726.975891,137.973648 726.613525,138.033447 
	C725.848755,138.761368 725.446350,139.429504 725.043945,140.097626 
z"/>
<path fill="#D22124" opacity="1.000000" stroke="none" 
	d="
M356.991791,60.995399 
	C355.925323,61.319946 354.873413,61.864449 353.790253,61.936012 
	C337.756989,62.995308 321.676086,63.552544 305.696228,65.134918 
	C291.563507,66.534370 277.436432,68.519455 263.503723,71.250298 
	C251.444962,73.613869 239.666931,77.404366 227.746964,80.495277 
	C227.052536,80.675354 226.197952,80.237801 225.113220,79.870346 
	C241.489014,75.535004 257.976410,70.108742 274.896118,67.611252 
	C299.149689,64.031235 323.718750,62.588821 348.928467,60.499252 
	C352.133148,60.841625 354.562469,60.918510 356.991791,60.995399 
z"/>
<path fill="#CB2122" opacity="1.000000" stroke="none" 
	d="
M344.008942,67.066513 
	C352.243805,66.397064 360.469116,65.354408 368.715698,65.143166 
	C382.015839,64.802483 395.336426,65.264084 408.636688,64.926003 
	C428.831909,64.412628 448.942657,62.907993 468.599365,57.732437 
	C470.176788,57.317104 471.853119,57.277519 473.926392,57.121399 
	C465.024292,59.437965 455.775238,63.005486 446.315521,63.698738 
	C422.172852,65.468040 397.936646,65.965332 373.737000,66.950401 
	C364.449707,67.328453 355.160034,67.649162 345.198792,67.884270 
	C344.275696,67.594345 344.103333,67.359001 344.008942,67.066513 
z"/>
<path fill="#CA272A" opacity="1.000000" stroke="none" 
	d="
M853.007568,141.388687 
	C854.093872,144.140182 855.636169,147.227585 856.177185,150.481491 
	C857.830444,160.423035 858.866333,170.381790 855.442078,180.279678 
	C854.266541,183.677765 853.874023,187.350037 853.165955,190.905426 
	C852.665833,193.416550 853.843384,194.434464 856.205017,193.802338 
	C859.699829,192.866882 863.138855,191.722885 867.233826,190.320801 
	C870.907349,189.288925 874.130005,189.033905 876.957642,187.841919 
	C887.382324,183.447372 897.690125,178.773621 908.010559,174.135162 
	C910.984497,172.798538 913.853088,171.227615 916.860107,169.856506 
	C916.950134,169.948898 917.130188,170.133804 917.130188,170.133804 
	C910.078369,177.327377 900.968933,181.004639 891.798462,184.239227 
	C878.294739,189.002213 864.565002,193.124573 849.160828,198.090652 
	C855.503296,178.580566 858.992737,160.391174 853.007568,141.388687 
z"/>
<path fill="#CA2F30" opacity="1.000000" stroke="none" 
	d="
M357.461243,60.988785 
	C354.562469,60.918510 352.133148,60.841625 349.384918,60.546192 
	C369.795227,59.881458 390.528290,59.564449 411.252655,58.953583 
	C432.965057,58.313587 454.500519,56.308910 475.636292,49.054199 
	C476.073853,49.079323 476.175323,49.188778 476.109619,49.381763 
	C476.043884,49.574749 476.015167,49.981472 476.015167,49.981472 
	C467.484344,52.303352 459.070374,55.278637 450.401581,56.829208 
	C419.792084,62.304287 388.804504,60.626236 357.461243,60.988785 
z"/>
<path fill="#D02023" opacity="1.000000" stroke="none" 
	d="
M863.038696,186.911575 
	C863.026978,186.193756 863.015259,185.475922 863.019897,184.400742 
	C881.213928,180.750000 898.030029,173.997986 912.176819,162.106750 
	C919.851868,155.655441 923.561035,146.048355 927.331909,136.365601 
	C927.677795,136.054535 928.059570,136.080261 928.043823,136.478485 
	C926.348694,146.181641 922.135376,154.454758 915.936707,161.299332 
	C908.710571,169.278427 899.125977,174.084686 889.188538,178.141739 
	C885.827332,179.513992 882.538208,183.652908 879.714722,183.226425 
	C873.338440,182.263321 868.565735,185.749039 863.038696,186.911575 
z"/>
<path fill="#C02C32" opacity="1.000000" stroke="none" 
	d="
M727.249268,137.711731 
	C726.729736,136.779007 726.493347,135.681198 726.119385,134.267807 
	C732.773865,128.095703 739.565857,122.239197 746.675354,116.282166 
	C746.902161,116.831192 746.811462,117.480743 746.703613,118.253036 
	C750.732361,116.848328 754.708008,115.462128 759.103149,114.114197 
	C746.899780,119.271088 735.728821,126.375031 727.249268,137.711731 
z"/>
<path fill="#D02427" opacity="1.000000" stroke="none" 
	d="
M651.671143,90.204590 
	C652.124268,89.989510 652.295532,89.989861 652.720337,90.387436 
	C651.618469,95.846352 650.657654,101.058014 648.805847,105.931076 
	C646.586609,111.770874 643.606934,117.321701 640.956604,122.997673 
	C640.546997,123.239189 640.137329,123.480705 639.518799,123.838806 
	C643.336304,112.776939 647.362793,101.598480 651.671143,90.204590 
z"/>
<path fill="#CA272A" opacity="1.000000" stroke="none" 
	d="
M930.997131,149.992310 
	C928.749512,158.071793 924.336914,164.715378 917.451294,170.032776 
	C917.130188,170.133804 916.950134,169.948898 916.983887,169.538666 
	C921.388977,162.402618 925.760254,155.676773 930.325256,149.078461 
	C930.745239,149.427429 930.904663,149.689529 930.997131,149.992310 
z"/>
<path fill="#CA2D30" opacity="1.000000" stroke="none" 
	d="
M931.231201,149.706680 
	C930.904663,149.689529 930.745239,149.427429 930.291199,148.693451 
	C931.386841,140.978455 932.938232,133.806824 933.917786,126.557930 
	C934.292358,123.786438 933.358887,120.838188 933.002502,117.708420 
	C932.771484,116.985191 932.559509,116.524033 932.347534,116.062866 
	C932.423218,115.508163 932.498840,114.953468 933.100220,114.190201 
	C934.066467,113.990135 934.507141,113.998634 934.947754,114.007141 
	C935.363953,125.966858 935.345398,137.883820 931.231201,149.706680 
z"/>
<path fill="#BF3536" opacity="1.000000" stroke="none" 
	d="
M932.211914,116.440086 
	C932.559509,116.524033 932.771484,116.985191 932.992920,118.129135 
	C931.637268,124.196083 930.272156,129.580246 928.703430,135.085648 
	C928.255737,135.429642 928.108887,135.704391 928.050049,136.040771 
	C928.040833,136.050400 928.059570,136.080261 928.059570,136.080261 
	C928.059570,136.080261 927.677795,136.054535 927.488098,136.030151 
	C928.891052,129.609619 930.483643,123.213463 932.211914,116.440086 
z"/>
<path fill="#BF3536" opacity="1.000000" stroke="none" 
	d="
M935.007507,113.576866 
	C934.507141,113.998634 934.066467,113.990135 933.295410,113.980896 
	C933.194824,111.493324 933.424744,109.006485 933.654663,106.519638 
	C934.125549,106.533508 934.596375,106.547386 935.067261,106.561264 
	C935.067261,108.756378 935.067261,110.951485 935.007507,113.576866 
z"/>
<path fill="#CA2F30" opacity="1.000000" stroke="none" 
	d="
M481.824371,47.532127 
	C480.553925,48.248035 479.191345,48.627640 477.238770,49.062611 
	C476.648773,49.117981 476.175323,49.188778 476.175323,49.188778 
	C476.175323,49.188778 476.073853,49.079323 476.023285,49.024437 
	C477.578033,48.253124 479.183380,47.536694 481.095520,46.700836 
	C481.512299,46.786217 481.622253,46.991020 481.824371,47.532127 
z"/>
<path fill="#C02C32" opacity="1.000000" stroke="none" 
	d="
M723.734924,136.204865 
	C723.226929,137.341385 722.433472,138.620331 721.304016,139.940704 
	C721.795166,138.770508 722.622314,137.558914 723.734924,136.204865 
z"/>
<path fill="#D22124" opacity="1.000000" stroke="none" 
	d="
M343.633850,67.045296 
	C344.103333,67.359001 344.275696,67.594345 344.725830,67.870438 
	C343.834808,68.137566 342.744019,68.306816 341.328613,68.169006 
	C341.003876,67.610252 341.005676,67.358566 341.009338,67.106888 
	C341.759155,67.079285 342.508942,67.051682 343.633850,67.045296 
z"/>
<path fill="#CB2122" opacity="1.000000" stroke="none" 
	d="
M340.632996,67.074417 
	C341.005676,67.358566 341.003876,67.610252 341.008179,68.051666 
	C340.262177,68.416473 339.511932,68.591560 338.378906,68.687454 
	C338.000458,68.278175 338.001068,67.948067 337.996521,67.372787 
	C338.748901,67.099060 339.502777,67.070503 340.632996,67.074417 
z"/>
<path fill="#C02C32" opacity="1.000000" stroke="none" 
	d="
M720.705139,140.117096 
	C720.389832,141.161743 719.799561,142.356308 718.846924,143.472839 
	C719.133057,142.352219 719.781616,141.309616 720.705139,140.117096 
z"/>
<path fill="#D02427" opacity="1.000000" stroke="none" 
	d="
M638.795776,125.195702 
	C638.934021,125.640602 638.864441,126.278702 638.522339,126.959045 
	C638.362549,126.463821 638.475281,125.926361 638.795776,125.195702 
z"/>
<path fill="#C02C32" opacity="1.000000" stroke="none" 
	d="
M725.292725,139.954224 
	C725.446350,139.429504 725.848755,138.761368 726.564819,138.032745 
	C726.432861,138.585114 725.987122,139.197968 725.292725,139.954224 
z"/>
<path fill="#C02C32" opacity="1.000000" stroke="none" 
	d="
M718.161377,143.698181 
	C718.210510,144.004166 718.081177,144.442062 717.682251,144.935303 
	C717.602722,144.603790 717.792847,144.216934 718.161377,143.698181 
z"/>
<path fill="#D02023" opacity="1.000000" stroke="none" 
	d="
M861.185547,182.234024 
	C861.498840,181.986221 861.921143,181.990173 862.660767,181.997009 
	C862.977539,182.182938 862.977051,182.365982 862.884644,182.808258 
	C862.293335,182.873581 861.793945,182.679672 861.185547,182.234024 
z"/>
<path fill="#CA2F30" opacity="1.000000" stroke="none" 
	d="
M482.753479,46.003548 
	C482.721802,46.214046 482.446075,46.420925 481.917114,46.529087 
	C481.875671,46.149357 482.157501,46.005875 482.753479,46.003548 
z"/>
<path fill="#C7282B" opacity="1.000000" stroke="none" 
	d="
M651.031921,2.899110 
	C651.031921,2.899110 651.017639,2.509099 651.005188,2.314361 
	C669.717712,2.493868 687.758057,6.657559 705.422485,12.449412 
	C731.617249,21.038193 755.784180,34.137405 780.156372,46.748028 
	C782.210510,47.810879 784.282227,48.839752 786.662964,50.047615 
	C786.872559,50.467346 786.702515,50.671898 785.918823,50.866554 
	C776.013611,46.315788 766.700073,41.638176 757.295898,37.150379 
	C743.866150,30.741507 730.585815,23.950653 716.852173,18.263510 
	C695.819397,9.553770 673.558289,5.518861 651.031921,2.899110 
z"/>
<path fill="#F50504" opacity="1.000000" stroke="none" 
	d="
M650.576782,2.931339 
	C673.558289,5.518861 695.819397,9.553770 716.852173,18.263510 
	C730.585815,23.950653 743.866150,30.741507 757.295898,37.150379 
	C766.700073,41.638176 776.013611,46.315788 785.737915,50.956367 
	C786.387634,51.569767 786.534546,52.487495 786.965820,52.649811 
	C798.847656,57.121189 810.735657,61.578548 822.670410,65.906425 
	C836.357056,70.869629 850.821960,69.977417 864.958069,70.673363 
	C876.815491,71.257126 888.774170,69.342094 900.697632,69.157753 
	C911.642212,68.988548 922.600525,69.626366 933.550903,69.967598 
	C936.715942,70.066231 937.382080,71.837051 936.742004,74.054596 
	C917.350891,74.054596 898.428223,73.850334 879.513000,74.139969 
	C869.922974,74.286812 860.271423,76.376030 850.782715,75.697899 
	C838.493347,74.819611 826.236450,72.538170 814.152954,69.977089 
	C800.286804,67.038170 788.244934,59.512241 775.954956,52.825317 
	C770.864807,50.055786 766.355286,46.195042 761.209229,43.557423 
	C751.387451,38.523224 741.462402,33.615253 731.275696,29.388895 
	C720.427612,24.888226 709.092834,21.565857 698.217957,17.123499 
	C687.296448,12.662117 675.743652,12.473138 664.372131,11.094824 
	C653.378662,9.762319 642.269775,7.914187 631.285156,8.313965 
	C614.127197,8.938416 596.939026,10.631614 579.940979,13.095406 
	C568.314636,14.780603 556.847656,18.085957 545.585449,21.561438 
	C539.178894,23.538485 533.383240,27.437586 527.207886,30.240484 
	C522.519775,32.368317 517.666565,34.132114 512.503296,36.060074 
	C511.211212,35.874245 510.302643,35.686230 509.179962,35.219570 
	C518.403076,30.394140 527.853088,25.873632 537.270935,21.287041 
	C540.803467,19.566687 544.084106,17.086349 547.786926,16.005028 
	C558.005798,13.020886 568.319275,10.278393 578.724426,8.040177 
	C587.584839,6.134242 596.604309,4.913858 605.593140,3.679624 
	C610.489746,3.007278 615.469055,2.937139 620.727539,2.325895 
	C627.048035,2.053450 633.052185,2.050514 639.522827,2.020639 
	C643.366760,2.316989 646.744202,2.640279 650.576782,2.931339 
z"/>
<path fill="#D01E22" opacity="1.000000" stroke="none" 
	d="
M476.109619,49.381763 
	C476.175323,49.188778 476.648773,49.117981 476.888550,49.134872 
	C476.952759,49.421040 476.728790,49.641003 476.235779,49.896561 
	C476.015167,49.981472 476.043884,49.574749 476.109619,49.381763 
z"/>
<path fill="#F30605" opacity="1.000000" stroke="none" 
	d="
M928.907043,134.964417 
	C930.272156,129.580246 931.637268,124.196083 933.011902,118.391205 
	C933.358887,120.838188 934.292358,123.786438 933.917786,126.557930 
	C932.938232,133.806824 931.386841,140.978455 930.097473,148.565903 
	C925.760254,155.676773 921.388977,162.402618 916.893860,169.446289 
	C913.853088,171.227615 910.984497,172.798538 908.010559,174.135162 
	C897.690125,178.773621 887.382324,183.447372 876.957642,187.841919 
	C874.130005,189.033905 870.907349,189.288925 867.481445,190.050781 
	C865.769653,189.294144 864.442505,188.460663 863.077026,187.269379 
	C868.565735,185.749039 873.338440,182.263321 879.714722,183.226425 
	C882.538208,183.652908 885.827332,179.513992 889.188538,178.141739 
	C899.125977,174.084686 908.710571,169.278427 915.936707,161.299332 
	C922.135376,154.454758 926.348694,146.181641 928.043823,136.478485 
	C928.059570,136.080261 928.040833,136.050400 928.255005,135.919189 
	C928.731567,135.575363 928.877502,135.300842 928.907043,134.964417 
z"/>
<path fill="#FA0203" opacity="1.000000" stroke="none" 
	d="
M698.089966,163.926086 
	C693.848389,175.072968 689.749207,185.852234 685.686340,196.645172 
	C684.611633,199.500153 683.210999,201.482727 679.573242,201.151031 
	C675.773438,200.804581 671.890320,201.326645 668.102783,200.918823 
	C666.816101,200.780258 664.631165,198.870819 664.715088,197.937851 
	C665.014038,194.616714 665.844360,191.272659 666.961853,188.109833 
	C669.802368,180.070435 672.960815,172.144058 675.894104,164.136581 
	C681.267334,149.468307 686.491089,134.744949 691.925842,120.099709 
	C696.663513,107.332832 701.701416,94.677055 706.403076,81.897293 
	C707.937134,77.727318 708.302551,73.061485 710.238281,69.132751 
	C711.216980,67.146294 714.360107,65.590576 716.782288,65.092186 
	C720.956970,64.233162 725.331848,64.153458 729.624756,64.130493 
	C732.489807,64.115166 734.514771,65.325768 733.198364,68.862900 
	C730.492676,76.133247 727.839600,83.423347 725.195129,90.716301 
	C720.081116,104.819992 715.036804,118.949211 709.857666,133.028870 
	C708.226746,137.462540 706.322144,141.801178 704.364624,146.102249 
	C704.109314,146.663177 702.785706,146.737946 702.704224,146.767441 
	C701.197876,152.442368 699.721924,158.002991 698.089966,163.926086 
z"/>
<path fill="#F30606" opacity="1.000000" stroke="none" 
	d="
M726.351257,212.046997 
	C724.877625,210.434738 723.929199,208.700943 722.603271,207.332947 
	C716.321533,200.851959 712.740845,192.925980 710.789185,184.334579 
	C709.849854,180.199493 709.668274,175.719162 710.095154,171.491257 
	C710.610596,166.386917 712.135315,161.384491 713.223206,156.337952 
	C713.678162,156.385254 714.133179,156.432556 714.588196,156.479858 
	C714.674133,157.649628 715.153198,158.962845 714.786621,159.967484 
	C709.819519,173.580444 714.731018,185.679550 720.539307,197.595261 
	C721.089294,198.723541 722.839050,199.266983 724.367615,200.193298 
	C730.231995,208.743027 738.985657,211.804321 748.110107,213.875946 
	C766.173767,217.977158 783.986572,215.877472 801.600952,210.962784 
	C802.693909,210.657822 803.714966,210.102066 804.799622,209.758087 
	C805.649048,209.488739 806.545105,209.366760 807.420471,209.179291 
	C807.646484,209.591568 807.872437,210.003830 808.098450,210.416107 
	C806.189880,211.633133 804.430969,213.313568 802.346741,213.986801 
	C793.412415,216.872772 784.313965,219.256042 775.404907,222.212906 
	C764.803406,225.731430 754.337402,224.557709 744.222778,221.074692 
	C738.080200,218.959488 732.522766,215.145081 726.351257,212.046997 
z"/>
<path fill="#F30606" opacity="1.000000" stroke="none" 
	d="
M812.103027,207.094742 
	C812.630127,207.263702 812.896484,207.495926 813.162903,207.728149 
	C812.622437,207.909317 812.082031,208.090485 811.541565,208.271652 
	C811.641846,207.900452 811.742065,207.529236 812.103027,207.094742 
z"/>
<path fill="#F90203" opacity="1.000000" stroke="none" 
	d="
M640.968994,123.416718 
	C643.606934,117.321701 646.586609,111.770874 648.805847,105.931076 
	C650.657654,101.058014 651.618469,95.846352 652.977173,90.388062 
	C655.664795,82.907402 658.649902,75.917221 660.902954,68.698593 
	C661.986450,65.227356 664.168701,64.217285 667.050049,64.060585 
	C671.532104,63.816856 676.042725,63.840145 680.529541,64.028702 
	C683.728149,64.163132 685.528320,65.483986 684.045959,69.213036 
	C681.301819,76.116234 678.842590,83.132103 676.168457,90.063896 
	C669.926025,106.244995 663.490295,122.353165 657.421204,138.598587 
	C655.179138,144.600128 653.745667,150.903778 651.905151,157.451813 
	C650.650696,159.678101 649.025269,161.372589 648.287354,163.391464 
	C644.604797,173.466919 641.238953,183.657852 637.587219,193.744995 
	C635.859070,198.518753 633.330200,202.233871 627.074829,201.153214 
	C623.682251,200.567123 620.071472,201.311249 616.635620,200.865326 
	C615.659302,200.738602 613.977722,198.205765 614.273193,197.342392 
	C616.984314,189.422455 620.079163,181.634521 623.022034,173.793030 
	C624.874451,168.857147 626.544250,163.849472 628.517761,158.963577 
	C629.614807,156.247528 631.430420,153.814896 632.463745,151.081223 
	C635.376404,143.375443 638.099792,135.596436 640.770752,127.802750 
	C641.183655,126.597870 640.927856,125.163834 640.968994,123.416718 
z"/>
<path fill="#D02023" opacity="1.000000" stroke="none" 
	d="
M928.703430,135.085648 
	C928.877502,135.300842 928.731567,135.575363 928.264221,135.909576 
	C928.108887,135.704391 928.255737,135.429642 928.703430,135.085648 
z"/>
</svg>